<svg width="288" height="288" xmlns="http://www.w3.org/2000/svg" version="1.1">

 <g>
  <title>Layer 1</title>
  <svg fill="#b2b2b2" y="-1" x="1" id="svg_1" height="288" width="288" viewBox="0 0 32 32" xmlns="http://www.w3.org/2000/svg">
   <path id="svg_2" class="color231f20 svgShape" d="m16,14.81l12.78,-8.21a3,3 0 0 0 -1.78,-0.6l-22,0a3,3 0 0 0 -1.78,0.6l12.78,8.21z" fill="#b2b2b2"/>
   <path id="svg_3" class="color231f20 svgShape" d="m16.54,16.84l0,0l-0.17,0.08l-0.08,0a1,1 0 0 1 -0.29,0.08l0,0a1,1 0 0 1 -0.25,0l-0.08,0l-0.17,-0.08l0,0l-13.4,-8.66a3,3 0 0 0 -0.1,0.74l0,14a3,3 0 0 0 3,3l22,0a3,3 0 0 0 3,-3l0,-14a3,3 0 0 0 -0.1,-0.74l-13.36,8.58z" fill="#b2b2b2"/>
  </svg>
 </g>
</svg>