<svg width="288" height="288" xmlns="http://www.w3.org/2000/svg" version="1.1">

 <g>
  <title>Layer 1</title>
  <g id="svg_11">
   <path id="svg_2" class="color000 svgShape" fill="#b2b2b2" d="m205,103l0,-26c0,-36.4 -28.6,-65 -65,-65s-65,28.6 -65,65l0,26c-22.1,0 -39,16.9 -39,39l0,91c0,22.1 16.9,39 39,39l130,0c22.1,0 39,-16.9 39,-39l0,-91c0,-22.1 -16.9,-39 -39,-39zm-104,-26c0,-22.1 16.9,-39 39,-39s39,16.9 39,39l0,26l-78,0l0,-26zm52,130c0,7.8 -5.2,13 -13,13s-13,-5.2 -13,-13l0,-39c0,-7.8 5.2,-13 13,-13s13,5.2 13,13l0,39z"/>
  </g>
 </g>
</svg>