<svg width="375" height="265" xmlns="http://www.w3.org/2000/svg" data-name="Layer 1">

 <g>
  <title>Layer 1</title>
  <g id="svg_13">
   <path id="svg_1" d="m102.5797,56.99659l-0.00918,0.00034a0.0846,0.0846 0 0 1 -0.0422,-0.00941l-0.007,-0.00369a36.90049,36.90049 0 0 0 -3.7027,-1.62879c-1.25246,-0.47615 -2.55063,-0.93727 -3.81285,-1.30708l0.10244,0.01486l-0.01838,0.00051a0.29468,0.29468 0 0 1 -0.09279,-0.01208l-0.0253,-0.00771a76.35378,76.35378 0 0 0 -20.58011,-3.46624a84.942,84.942 0 0 0 -10.43508,0.33271l-10.51234,0.88815c-7.01053,0.56555 -14.03422,0.96989 -21.0545,1.41678c-7.022,0.42544 -14.04092,0.88685 -21.04986,1.4706l0.15,-0.5369a20.38059,20.38059 0 0 1 3.38224,3.09519a18.786,18.786 0 0 1 2.52953,3.83293a23.53537,23.53537 0 0 1 1.56441,4.31951a26.75013,26.75013 0 0 1 0.68914,4.53925a37.41312,37.41312 0 0 1 -0.61234,9.13277a44.54922,44.54922 0 0 1 -2.55642,8.82218l-0.83478,-1.07437c4.93168,-0.93171 9.86188,-1.8716 14.79992,-2.76707l14.80831,-2.71863l-0.809,0.72923l0.1072,-0.31785l-0.03256,0.08649a10.342,10.342 0 0 1 4.17834,-5.52388a11.00125,11.00125 0 0 1 6.67726,-1.80206a10.51677,10.51677 0 0 1 6.38379,2.6985a3.78114,3.78114 0 0 1 0.61891,0.62782l0.57218,0.67251a15.677,15.677 0 0 1 0.94754,1.47565c0.27383,0.505 0.46078,1.02433 0.69344,1.53628c0.10844,0.2575 0.22653,0.51234 0.32613,0.77211l0.24423,0.79372a38.29157,38.29157 0 0 1 1.33958,12.9159a67.62308,67.62308 0 0 1 -1.79866,12.73167l-0.74018,-0.74284l9.95468,-2.08163l9.97521,-1.99439a0.09827,0.09827 0 0 1 0.04379,0.19153l-9.83829,2.58053l-9.85588,2.50611a0.60908,0.60908 0 0 1 -0.74834,-0.70286l0.00794,-0.04015a76.39888,76.39888 0 0 0 1.35829,-12.5001a36.57666,36.57666 0 0 0 -1.55771,-12.25059l-0.23335,-0.72435c-0.09313,-0.23368 -0.20293,-0.45908 -0.3031,-0.68908c-0.21235,-0.44972 -0.39068,-0.93392 -0.62753,-1.35619c-0.2684,-0.3921 -0.47871,-0.82832 -0.7834,-1.18951l-0.46657,-0.53326a2.61725,2.61725 0 0 0 -0.50014,-0.49669a8.45471,8.45471 0 0 0 -5.1353,-2.09927a8.904,8.904 0 0 0 -5.39791,1.44672a8.46959,8.46959 0 0 0 -3.37873,4.4147l-0.03267,0.08689a0.35609,0.35609 0 0 1 -0.0228,0.07209l-0.066,0.15a1.00328,1.00328 0 0 1 -0.74335,0.57944l-14.84462,2.51314c-4.94631,0.84846 -9.90056,1.6525 -14.85323,2.46476a0.77444,0.77444 0 0 1 -0.8349,-1.07453a47.11615,47.11615 0 0 0 2.7411,-8.43587a35.17011,35.17011 0 0 0 0.89989,-8.8384a25.90312,25.90312 0 0 0 -0.52521,-4.40771a19.90492,19.90492 0 0 0 -1.42851,-4.1919a18.11767,18.11767 0 0 0 -2.3933,-3.7204a19.76364,19.76364 0 0 0 -3.23693,-3.03257l-0.00828,-0.00641a0.29705,0.29705 0 0 1 0.15824,-0.5306c7.01008,-0.56952 14.01051,-1.25706 21.0072,-1.98844c6.99862,-0.70876 13.99373,-1.46 21.0021,-2.0501l10.51574,-0.84522a76.32035,76.32035 0 0 1 10.64313,-0.163a70.6997,70.6997 0 0 1 10.5475,1.38575a66.54353,66.54353 0 0 1 10.20084,2.92759l-0.11775,-0.01968l0.01838,0.00051l0.02779,0.00079a0.2512,0.2512 0 0 1 0.075,0.01412c1.31462,0.46946 2.54462,0.99133 3.796,1.55052a31.06469,31.06469 0 0 1 3.6124,1.90688l-0.04877,-0.013l0.00918,0.00034a0.09831,0.09831 0 0 1 0,0.19647l-0.00019,-0.00004zm42.98838,26.2003a21.13049,21.13049 0 0 0 -3.30522,-7.82881a19.02657,19.02657 0 0 0 -2.77365,-3.098a24.78386,24.78386 0 0 0 -3.358,-2.46879a35.07493,35.07493 0 0 0 -7.74605,-3.35264a54.02013,54.02013 0 0 0 -8.39583,-1.82861l-0.0549,-0.00538q-1.45722,-0.40617 -2.90456,-0.86751c1.01174,0.04974 2.01941,0.12183 3.02412,0.21042l-0.05456,-0.00539a32.11611,32.11611 0 0 1 8.83122,0.84065a27.69134,27.69134 0 0 1 8.31461,3.36126a18.25887,18.25887 0 0 1 6.34567,6.43449a16.09817,16.09817 0 0 1 2.07715,8.60831z"/>
   <path id="svg_2" d="m52.51954,75.10283c1.712,-0.6627 3.44316,-1.23965 5.18624,-1.76293q2.6124,-0.79565 5.2518,-1.46941c1.75442,-0.47286 3.52812,-0.85861 5.295,-1.27543c1.77654,-0.37275 3.54979,-0.76241 5.33994,-1.0755l0.4137,-0.07231l0.26,0.19851a14.346,14.346 0 0 1 2.022,1.90149a18.48306,18.48306 0 0 1 1.66662,2.11612a19.231,19.231 0 0 1 1.35478,2.30453a17.145,17.145 0 0 1 1.01379,2.45245q-0.76911,-1.07631 -1.584,-2.08367c-0.551,-0.67064 -1.107,-1.33975 -1.68692,-1.94692c-0.592,-0.61562 -1.19767,-1.21123 -1.827,-1.772a22.45471,22.45471 0 0 0 -1.92878,-1.51779l0.67337,0.12614c-1.75453,0.47037 -3.52586,0.865 -5.29241,1.28315c-1.77666,0.37218 -3.54639,0.77545 -5.33541,1.09166q-2.67485,0.514 -5.37862,0.89774c-1.80038,0.26582 -3.61265,0.47789 -5.4441,0.60417zm-24.9235,-22.05249a19.71188,19.71188 0 0 1 4.83957,6.95756a27.57647,27.57647 0 0 1 2.13046,8.31074a30.57712,30.57712 0 0 1 -0.52079,8.54131c-0.0692,0.34905 -0.12228,0.7007 -0.20487,1.04606l-0.29323,1.02564l-0.61551,2.03359c-0.49708,1.32552 -1.07879,2.618 -1.68863,3.8791c0.19852,-1.40685 0.52624,-2.75539 0.75459,-4.11992l0.288,-2.05061l0.1587,-1.01651c0.04265,-0.3398 0.05559,-0.68374 0.08485,-1.02456c0.04753,-0.68341 0.102,-1.36329 0.17379,-2.04023c0.05071,-0.67864 0.024,-1.36107 0.0405,-2.0392a36.76672,36.76672 0 0 0 -0.13284,-4.0581a37.99559,37.99559 0 0 0 -1.60253,-7.94469a33.25028,33.25028 0 0 0 -3.41206,-7.50018z"/>
   <path id="svg_3" d="m80.85316,73.49523c1.46828,-0.54824 2.9458,-1.08723 4.43267,-1.59833a14.37955,14.37955 0 0 0 -0.13011,1.83065c-1.2731,0.39959 -2.55551,0.78062 -3.84722,1.1523c-0.87352,0.25092 -1.74705,0.50184 -2.62981,0.75271q-0.18123,-0.27881 -0.36244,-0.52969c-0.12081,-0.17657 -0.25092,-0.34383 -0.36243,-0.50179c0.96643,-0.38098 1.93291,-0.74341 2.89934,-1.10585zm14.64542,-3.14096c-1.13369,0.39028 -2.24883,0.78062 -3.38258,1.1616l-0.0093,0a9.38516,9.38516 0 0 0 -1.2266,-1.55188l0.41813,-0.13941c1.25456,-0.40889 2.50906,-0.81777 3.76362,-1.21735c0.14866,0.6319 0.30662,1.21735 0.43673,1.74704zm-6.38413,-6.1239c1.86786,-0.60406 3.73571,-1.20811 5.61282,-1.79356a5.8962,5.8962 0 0 0 -0.28808,1.93291c-1.57048,0.5576 -3.15951,1.08724 -4.73929,1.62624c-3.50339,1.143 -7.02533,2.26744 -10.57518,3.28038q-2.46726,0.72477 -4.96237,1.38461c-1.9143,0.51109 -3.82861,0.99433 -5.77077,1.41252c0.77126,-0.34389 1.54257,-0.68771 2.32319,-1.02224c0.0093,0 0.0093,0 0.01855,-0.0093c2.62057,-1.11509 5.27834,-2.14663 7.93606,-3.141c3.45689,-1.30092 6.95098,-2.49042 10.44507,-3.67056zm14.61751,-3.28968c-0.158,0.06506 -0.31592,0.13011 -0.47394,0.18587a4.97916,4.97916 0 0 0 -1.3567,-0.80847q0.75267,-0.20911 1.50542,-0.41819c0.12081,0.39028 0.23232,0.74341 0.32522,1.04079zm-87.94487,26.62955c-20.97963,-19.14856 -4.46808,-33.17711 -4.46808,-33.17711c14.66332,10.61786 4.46808,33.17711 4.46808,33.17711zm48.31912,21.01102c-17.31208,5.164 -18.66693,-26.24066 -18.66693,-26.24066q0.03045,-0.09666 0.0615,-0.192c2.603,-7.99576 13.76034,-9.02993 17.60944,-1.55382c5.21596,10.13096 0.99599,27.98648 0.99599,27.98648zm13.05858,-3.75065c-2.86735,7.06515 -5.80084,14.05741 -8.50019,21.11417a181.6882,181.6882 0 0 0 -6.96084,21.36107a47.86082,47.86082 0 0 0 -1.01878,5.40568a17.91527,17.91527 0 0 0 0.02359,5.3118a7.4926,7.4926 0 0 0 0.8307,2.35989a5.11056,5.11056 0 0 0 1.6791,1.71778a8.17069,8.17069 0 0 0 5.09276,0.76219a32.20265,32.20265 0 0 0 10.47967,-3.77428c0.82469,-0.45693 1.65062,-0.90818 2.4651,-1.38479l2.4077,-1.49839c1.62476,-0.96342 3.14743,-2.09144 4.70617,-3.151c1.55307,-1.06954 3.03014,-2.24906 4.54441,-3.36432l2.19943,-1.77217c0.732,-0.59073 1.48523,-1.1519 2.19138,-1.77456c1.41967,-1.23431 2.8973,-2.39142 4.27806,-3.66662l2.10482,-1.86883l2.05049,-1.92831q4.0851,-3.87045 7.85961,-8.0469c2.53385,-2.76338 4.96526,-5.6186 7.33961,-8.52134a202.45277,202.45277 0 0 0 13.27691,-18.21245q3.07336,-4.74376 5.89817,-9.66422c1.886,-3.27726 3.6909,-6.61588 5.33472,-10.03789l0.37026,0.13153a108.45623,108.45623 0 0 1 -8.94225,21.14968a136.3537,136.3537 0 0 1 -12.6715,19.25874a129.08075,129.08075 0 0 1 -15.96049,16.68462l-2.17981,1.89514l-2.24107,1.82254c-1.48432,1.22529 -3.03773,2.36584 -4.59057,3.50061c-1.55568,1.13131 -3.171,2.18123 -4.77185,3.2413c-1.64813,0.99343 -3.25292,2.04573 -4.92828,2.98379c-1.67331,0.94085 -3.32461,1.91029 -5.03116,2.782c-1.69158,0.89434 -3.37828,1.79583 -5.10683,2.63214a42.07662,42.07662 0 0 1 -10.91141,3.84637a9.987,9.987 0 0 1 -6.03134,-0.60774a6.86282,6.86282 0 0 1 -2.4735,-2.09853a10.0649,10.0649 0 0 1 -1.37191,-2.86888a20.10153,20.10153 0 0 1 -0.69752,-6.02368a40.4335,40.4335 0 0 1 0.59135,-5.87537a68.26711,68.26711 0 0 1 3.042,-11.20606c1.2747,-3.63492 2.73168,-7.1863 4.31334,-10.67472c0.77455,-1.7509 1.6167,-3.47021 2.46453,-5.18391c0.8408,-1.717 1.72742,-3.41094 2.64014,-5.0897c1.81885,-3.36057 3.73617,-6.66573 5.85914,-9.8523l0.34614,0.18592zm-46.18753,-46.36756c5.35174,-0.80535 10.71788,-1.4174 16.089,-1.96144c5.37034,-0.5563 10.74908,-0.998 16.12952,-1.41745c5.38316,-0.38285 10.76813,-0.74115 16.16162,-0.98538c5.39257,-0.25648 10.79025,-0.44337 16.20245,-0.43554c-5.35151,0.80779 -10.71765,1.42086 -16.08879,1.96439c-5.37034,0.55573 -10.74919,0.9974 -16.12974,1.41451c-5.38339,0.38047 -10.76837,0.73876 -16.16185,0.98242c-5.39256,0.25591 -10.79024,0.44388 -16.20221,0.43849z"/>
   <path id="svg_4" d="m96.70695,148.6169c-0.76967,-6.82489 -1.50985,-13.66073 -2.17266,-20.50405l-0.25387,-2.56612l-0.12694,-1.2832c-0.01271,-0.10005 -0.01656,-0.2292 -0.03641,-0.30543a1.381,1.381 0 0 1 -0.05661,-0.18666a5.26213,5.26213 0 0 0 -0.21927,-0.50321c-0.75822,-1.437 -1.75329,-2.87444 -2.67667,-4.30908c-1.8843,-2.87189 -3.70168,-5.81632 -5.3261,-8.88173c-0.8037,-1.53793 -1.56089,-3.1058 -2.22269,-4.72392c-0.65476,-1.63866 -1.20368,-3.2704 -1.77223,-4.88143c-1.14185,-3.23506 -2.27373,-6.47312 -3.36329,-9.726l-1.65335,-4.87287l-0.41337,-1.21825a6.42181,6.42181 0 0 1 -0.32193,-1.42443a5.83077,5.83077 0 0 1 0.4044,-2.9066a4.33677,4.33677 0 0 1 2.02667,-2.27289a4.15633,4.15633 0 0 1 3.03252,-0.1216a13.3153,13.3153 0 0 1 4.5655,2.88209l-1.02161,0.57383a49.2381,49.2381 0 0 1 -0.45443,-4.99787c-0.03222,-0.83468 -0.03744,-1.67865 -0.00386,-2.51411c0.07079,-0.84233 0.10459,-1.69838 0.24661,-2.53425a6.08694,6.08694 0 0 1 0.93064,-2.49539a2.193,2.193 0 0 1 1.22025,-0.86615a2.81433,2.81433 0 0 1 1.4318,0.0789a7.152,7.152 0 0 1 3.93321,3.26829l-0.29641,-0.16164l0.00907,0l0.19228,0.00114l0.10209,0.15722a27.60021,27.60021 0 0 1 1.54762,2.838a9.51233,9.51233 0 0 0 0.74914,1.33329c0.17583,0.20832 0.17322,0.20543 0.42335,0.22a0.38706,0.38706 0 0 0 0.38614,-0.21423a3.13836,3.13836 0 0 0 0.20317,-1.39953a14.873,14.873 0 0 0 -0.12286,-1.56021a22.71168,22.71168 0 0 0 -0.61641,-3.09939a30.5102,30.5102 0 0 1 -0.68244,-3.14629a10.00749,10.00749 0 0 1 -0.04458,-3.28225a4.55834,4.55834 0 0 1 0.61789,-1.59118a3.563,3.563 0 0 1 1.27084,-1.18032a6.37106,6.37106 0 0 1 3.27266,-0.63077l-0.058,0.00273a5.61208,5.61208 0 0 1 1.44236,0.04753a6.19156,6.19156 0 0 1 1.37519,0.389a5.32231,5.32231 0 0 1 2.23982,1.76763l-0.036,-0.04174a0.44736,0.44736 0 0 1 0.12195,0.29l-0.00692,1.58455l-0.72668,-1.41014l-0.00942,-0.01832l-0.00919,-0.01764l-0.01554,-0.04447a45.46254,45.46254 0 0 1 -2.61109,-10.70688a13.003,13.003 0 0 1 0.03879,-2.85028a4.4986,4.4986 0 0 1 1.29058,-2.79554a3.08145,3.08145 0 0 1 1.536,-0.71369a3.804,3.804 0 0 1 1.63588,0.16664a7.45678,7.45678 0 0 1 2.52828,1.586a22.897,22.897 0 0 1 3.574,4.35174a52.61588,52.61588 0 0 1 2.796,4.79158a49.514,49.514 0 0 1 4.15,10.28631c0.94686,3.53811 1.841,7.04383 3.05532,10.427c1.22512,3.34123 2.70332,6.70328 5.05521,9.14a7.19193,7.19193 0 0 0 4.15078,2.24957a8.55173,8.55173 0 0 0 2.459,-0.09988a20.00251,20.00251 0 0 0 2.55982,-0.52516a22.05784,22.05784 0 0 0 4.84536,-1.9535a19.69769,19.69769 0 0 0 4.16382,-3.04426l1.00347,-0.99609l0.5344,1.21888a13.666,13.666 0 0 1 1.04192,4.3067a18.1328,18.1328 0 0 1 -0.1536,4.30982a21.88856,21.88856 0 0 1 -3.00393,7.94815a16.09573,16.09573 0 0 1 -2.71319,3.34934a20.01778,20.01778 0 0 1 -3.48206,2.48246c-1.226,0.68913 -2.48212,1.261 -3.63351,1.90314a7.13484,7.13484 0 0 0 -2.78908,2.40645a7.91774,7.91774 0 0 0 -0.90443,3.62455c-0.08962,1.344 -0.14055,2.69935 -0.15655,4.05895c-0.034,2.71909 0.01849,5.44719 0.11537,8.17349c0.1047,2.72612 0.21065,5.45491 0.38727,8.17955c0.19307,2.7196 0.34383,5.45922 0.80121,8.139l-0.181,0.04168c-0.58364,-2.68976 -0.85419,-5.41418 -1.17011,-8.1335c-0.28813,-2.72209 -0.55085,-5.4481 -0.73031,-8.18109c-0.18138,-2.73292 -0.31876,-5.46976 -0.369,-8.21727q-0.03914,-2.06058 0.03256,-4.13739a9.165,9.165 0 0 1 0.97329,-4.26a8.52243,8.52243 0 0 1 3.25712,-2.97313c1.22365,-0.711 2.44888,-1.29585 3.59335,-1.96932a18.44215,18.44215 0 0 0 3.1396,-2.324a14.42486,14.42486 0 0 0 2.37095,-3.04845a20.19707,20.19707 0 0 0 2.62425,-7.33984a16.27823,16.27823 0 0 0 0.12376,-3.86305a12.11682,12.11682 0 0 0 -0.86643,-3.63l1.53764,0.22273a22.77658,22.77658 0 0 1 -9.88321,5.5747a21.93879,21.93879 0 0 1 -2.79135,0.58443c-0.48131,0.052 -0.92213,0.1423 -1.43725,0.16119l-0.77273,0.02326c-0.25841,-0.01532 -0.51739,-0.04521 -0.77591,-0.06954a8.94532,8.94532 0 0 1 -5.29888,-2.82141c-2.705,-2.889 -4.14715,-6.428 -5.39507,-9.89773c-1.21412,-3.499 -2.08509,-7.081 -2.98669,-10.5956c-0.22982,-0.87557 -0.45908,-1.74727 -0.736,-2.57355c-0.28246,-0.84244 -0.60156,-1.68182 -0.93415,-2.51649c-0.66747,-1.66951 -1.40367,-3.3186 -2.2067,-4.93083a51.12189,51.12189 0 0 0 -2.62856,-4.70311a22.61483,22.61483 0 0 0 -3.2603,-4.15548a6.23218,6.23218 0 0 0 -2.02417,-1.374a2.57,2.57 0 0 0 -1.05712,-0.14855a1.86284,1.86284 0 0 0 -0.92157,0.39584a3.39728,3.39728 0 0 0 -0.96512,2.06116a11.95359,11.95359 0 0 0 -0.10448,2.6065a44.42691,44.42691 0 0 0 2.31095,10.5551l-0.02451,-0.06177l0.009,0.01855l-0.7336,0.17441a0.3416,0.3416 0 0 0 0.10357,0.25314l-0.03619,-0.042a4.56623,4.56623 0 0 0 -1.89871,-1.57877a5.1175,5.1175 0 0 0 -2.44786,-0.41727l-0.03664,0.00351l-0.02178,-0.00073a5.74146,5.74146 0 0 0 -2.93224,0.52164a3.23487,3.23487 0 0 0 -1.59538,2.32551a9.44572,9.44572 0 0 0 0.02167,3.07659a29.98627,29.98627 0 0 0 0.64443,3.10035a25.84835,25.84835 0 0 1 0.656,3.156a15.45861,15.45861 0 0 1 0.14656,1.62125a3.58057,3.58057 0 0 1 -0.267,1.72577a1.119,1.119 0 0 1 -1.86264,0.08412a9.80819,9.80819 0 0 1 -0.83671,-1.43458a27.02,27.02 0 0 0 -1.54093,-2.7504l0.29414,0.15824l-0.00907,0.00006l-0.19137,0.00113l-0.10539,-0.16295a6.19909,6.19909 0 0 0 -3.54139,-2.8766a1.4113,1.4113 0 0 0 -1.743,0.52715a5.275,5.275 0 0 0 -0.7015,2.13585c-0.10981,0.79582 -0.114,1.59691 -0.15926,2.39954c-0.00806,0.8151 0.02155,1.62322 0.07747,2.43714a48.81711,48.81711 0 0 0 0.585,4.84972l0.28473,1.6551l-1.30646,-1.08122a12.15111,12.15111 0 0 0 -4.13807,-2.483a2.7346,2.7346 0 0 0 -1.99117,0.09829a2.97162,2.97162 0 0 0 -1.26335,1.54507a4.28667,4.28667 0 0 0 -0.27247,2.141a4.84733,4.84733 0 0 0 0.25478,1.07874l0.42516,1.21587l1.70076,4.86351c1.1464,3.23812 2.25048,6.49093 3.3447,9.7468c0.55414,1.63231 1.08378,3.2616 1.68545,4.81717c0.61993,1.56691 1.3389,3.10171 2.10743,4.61468c1.54536,3.02639 3.33835,5.93061 5.13825,8.84957c0.8898,1.47729 1.82407,2.89112 2.62426,4.51406a5.783,5.783 0 0 1 0.26918,0.68488c0.0354,0.14571 0.06637,0.29318 0.09246,0.43951c0.02007,0.134 0.0186,0.22121 0.02892,0.33408l0.09064,1.28206l0.18116,2.56442c0.49753,6.83816 0.9177,13.6837 1.30827,20.54024l-0.18513,0.01643z"/>
   <polygon id="svg_5" points="107.90364837646484,72.07283020019531 103.68065643310547,62.23182678222656 104.54964447021484,61.90283203125 107.90364837646484,72.07283020019531 "/>
   <path id="svg_6" d="m245.50055,38.45438c-3.42558,1.45149 -6.99578,2.6719 -10.57121,3.79158a101.84467,101.84467 0 0 1 -10.9409,2.72062a55.36306,55.36306 0 0 1 -11.289,1.12473a30.96062,30.96062 0 0 1 -5.7288,-0.58777a16.35639,16.35639 0 0 1 -5.49252,-2.126l0.082,0.04713c-2.83661,-1.41541 -5.68842,-2.80088 -8.50927,-4.2476l-0.94118,-0.48273l0.56639,-0.81522a1.20388,1.20388 0 0 1 0.25251,-0.2896a1.24464,1.24464 0 0 1 0.153,-0.12257c0.08541,-0.05882 0.18581,-0.13573 0.26147,-0.17549c0.15666,-0.086 0.32432,-0.19233 0.473,-0.256c0.30685,-0.15155 0.60961,-0.28138 0.90795,-0.3947c0.60031,-0.23374 1.19529,-0.44093 1.79254,-0.61812c1.19188,-0.378 2.39137,-0.66384 3.59017,-0.94431q3.59674,-0.82959 7.21857,-1.40339c2.41213,-0.40548 4.82846,-0.76139 7.24716,-1.08967c2.417,-0.34247 4.8398,-0.62771 7.25987,-0.93087l-0.32783,0.18048l4.94971,-5.66466c1.65267,-1.89065 3.24487,-3.81012 4.95369,-5.67974a49.45019,49.45019 0 0 1 11.85441,-9.33389a52.22069,52.22069 0 0 1 6.87259,-3.19275a57.10968,57.10968 0 0 1 7.27563,-2.13471a44.96578,44.96578 0 0 1 15.16179,-1.20181a31.1206,31.1206 0 0 1 14.27459,5.564a33.1359,33.1359 0 0 1 9.98338,11.68817a35.27886,35.27886 0 0 1 2.72317,7.25363l0.41422,1.89771c0.11514,0.62855 0.226,1.2524 0.32171,1.88249q0.30084,1.88523 0.48891,3.79163a46.86618,46.86618 0 0 1 0.18615,7.68185a30.18159,30.18159 0 0 1 -1.41081,7.65117l-0.321,0.96388l-0.97023,-0.29165l-13.10993,-3.941l-13.14567,-3.827c-4.382,-1.27543 -8.7747,-2.51314 -13.18662,-3.66867q-3.30339,-0.89212 -6.62915,-1.68233c-1.1127,-0.23079 -2.22,-0.52856 -3.34016,-0.705l-1.67909,-0.30084l-1.67121,-0.13098zm-0.0456,-0.2009l1.75045,0.01815l1.70995,0.1954c1.145,0.1207 2.26194,0.36045 3.396,0.5352c2.2515,0.41325 4.49823,0.85537 6.73136,1.34876c4.46625,0.99116 8.91151,2.06433 13.34611,3.17528c4.436,1.10794 8.84651,2.307 13.2591,3.49784c4.4093,1.20578 8.81974,2.397 13.211,3.6799l-1.29092,0.67211c1.4731,-4.56919 1.46266,-9.57846 1.01923,-14.45552q-0.17644,-1.83726 -0.46724,-3.66748c-0.09143,-0.60944 -0.19909,-1.2203 -0.30878,-1.8247l-0.38535,-1.77693a33.43351,33.43351 0 0 0 -2.46646,-6.8283a31.138,31.138 0 0 0 -9.23265,-11.09614a30.014,30.014 0 0 0 -13.36619,-5.51888a44.715,44.715 0 0 0 -14.7187,0.70586a47.04258,47.04258 0 0 0 -14.02639,4.8816a45.1633,45.1633 0 0 0 -11.72645,9.14014c-3.28378,3.74842 -6.41374,7.69824 -9.58612,11.57309l-0.12013,0.14673l-0.20805,0.03391c-2.4018,0.39119 -4.80576,0.76758 -7.19951,1.1945c-2.39591,0.413 -4.78683,0.85333 -7.16356,1.341c-2.37844,0.48217 -4.747,0.99791 -7.0871,1.57706c-1.16818,0.29244 -2.33023,0.61137 -3.46142,0.96626c-0.56957,0.17084 -1.1253,0.36856 -1.65834,0.57825q-0.40668,0.15569 -0.766,0.33509c-0.13182,0.05638 -0.21848,0.12047 -0.33,0.17844a1.30946,1.30946 0 0 0 -0.11763,0.07849c-0.02133,0.0135 -0.03823,0.02575 -0.0261,0.01821c0.01294,-0.022 -0.03425,0.05394 0.09166,-0.12824l-0.37479,-1.29766c2.8391,1.41064 5.64712,2.88266 8.47046,4.32462l0.045,0.023l0.0372,0.02427c2.93031,1.90915 6.67669,2.45926 10.30146,2.58932a51.11974,51.11974 0 0 0 5.51543,-0.163c1.84256,-0.13278 3.6841,-0.3554 5.518,-0.64138c3.6732,-0.54948 7.30682,-1.38313 10.92536,-2.2794c3.62355,-0.90998 7.18581,-1.96778 10.76011,-3.15485z"/>
   <path id="svg_7" d="m268.14522,10.16389c-1.75987,2.06734 -3.56227,4.07676 -5.37341,6.07535l-5.42831,5.98631q-2.71382,2.98776 -5.3835,6.01285c-1.76746,2.02916 -3.51553,4.07024 -5.2518,6.15907a51.0347,51.0347 0 0 1 4.42008,-6.8355c1.626,-2.17583 3.39325,-4.23591 5.19781,-6.25832c1.82849,-2.001 3.715,-3.94671 5.68127,-5.81009a78.1883,78.1883 0 0 1 6.13786,-5.32967zm9.39668,0.98911a71.54124,71.54124 0 0 1 3.85335,8.17406q1.69389,4.19332 2.95946,8.5501a71.874,71.874 0 0 1 1.95293,8.851a40.94818,40.94818 0 0 1 0.38365,9.04423a86.219,86.219 0 0 0 -1.43839,-8.85246c-0.64239,-2.9112 -1.39743,-5.79539 -2.21769,-8.66337c-0.81,-2.87206 -1.728,-5.71513 -2.64332,-8.56388c-0.94266,-2.83963 -1.87171,-5.69047 -2.84999,-8.53968zm-55.63832,21.01889a43.40426,43.40426 0 0 1 4.85568,0.34014c1.60638,0.18071 3.19836,0.44042 4.7875,0.71545c1.5846,0.30027 3.166,0.61755 4.73328,1.0135a42.91966,42.91966 0 0 1 4.66419,1.39284a42.90918,42.90918 0 0 1 -4.856,-0.3381c-1.60627,-0.181 -3.19824,-0.44076 -4.787,-0.71743c-1.58427,-0.302 -3.16581,-0.61925 -4.73294,-1.01555a43.40929,43.40929 0 0 1 -4.66471,-1.39085zm0,12.47194c0.02563,1.379 -0.04708,2.75561 -0.1452,4.13438a26.45124,26.45124 0 0 1 -0.59339,4.13433a6.53408,6.53408 0 0 1 -0.81936,2.079c-0.35131,0.52453 -0.6931,1.13755 -1.03375,1.72124c-0.68652,1.17906 -1.34945,2.37877 -2.01113,3.57752q-2.00631,3.58553 -3.94591,7.20655c-0.63468,1.21145 -1.29148,2.41167 -1.89883,3.63027c-0.30582,0.60808 -0.59554,1.22184 -0.87925,1.83111c-0.13862,0.30537 -0.27066,0.61176 -0.38466,0.91385c-0.051,0.148 -0.11208,0.30361 -0.142,0.43582a0.7824,0.7824 0 0 0 -0.038,0.17209c-0.002,0.01106 -0.01168,0.06636 -0.01123,0.042a0.13584,0.13584 0 0 0 -0.0642,-0.11531l-0.25229,-0.177a5.18208,5.18208 0 0 0 1.43237,0.13487a8.18939,8.18939 0 0 0 1.527,-0.20566a12.68389,12.68389 0 0 0 1.50486,-0.45273a14.58347,14.58347 0 0 0 1.45551,-0.64829l0.06965,-0.03494l0.04606,0.00908a2.97176,2.97176 0 0 1 1.31666,0.60967a2.30714,2.30714 0 0 1 0.74585,1.18133a2.20536,2.20536 0 0 0 -0.87392,-1.0063a2.6927,2.6927 0 0 0 -1.22546,-0.40747l0.11537,-0.0258a11.84674,11.84674 0 0 1 -2.95867,1.488a8.99723,8.99723 0 0 1 -1.65652,0.36663a5.27017,5.27017 0 0 1 -1.78811,-0.0591l-0.16937,-0.03755l-0.08315,-0.13964a1.11171,1.11171 0 0 1 -0.135,-0.36289a1.05212,1.05212 0 0 1 -0.002,-0.21366a1.59366,1.59366 0 0 1 0.04424,-0.33492a5.45662,5.45662 0 0 1 0.14191,-0.55352c0.10754,-0.34791 0.2279,-0.68045 0.35325,-1.009c0.25,-0.65618 0.53281,-1.2912 0.81913,-1.92225c0.57739,-1.25961 1.17373,-2.50424 1.81261,-3.72641c1.25575,-2.45518 2.59782,-4.85948 3.98062,-7.24172c0.7024,-1.18536 1.41706,-2.36238 2.15451,-3.53215c0.37616,-0.58726 0.74426,-1.15189 1.19155,-1.74511a5.95073,5.95073 0 0 0 0.7733,-1.69986a56.6991,56.6991 0 0 0 1.62695,-8.01646z"/>
   <path id="svg_8" d="m225.36556,78.24861c-3.9565,-6.0996 -9.66428,-3.42567 -9.66428,-3.42567s-2.20521,30.29687 11.31282,31.12114c10.28766,0.6273 19.13969,-5.61987 25.36372,-12.34721a22.67457,22.67457 0 0 0 5.83137,-12.65489c0.84474,-6.90054 2.11291,-17.3254 2.43512,-20.33275c0.49456,-4.61591 2.365,-16.702 9.067,-15.96544c0,0 14.01259,0.13946 6.759,24.373c0,0 -1.97825,15.16657 10.88036,13.35318c0,0 -2.63766,-7.58329 0.82427,-13.35318s8.01331,-13.06443 7.7983,-18.072c0,0 -45.385,-13.41512 -50.49549,-12.59085a16.62576,16.62576 0 0 1 8.57241,17.80423c-1.50763,9.7996 -8.76011,22.95036 -12.12546,28.65279a5.83489,5.83489 0 0 1 -5.25168,2.87851c-1.949,-0.07834 -4.18512,-0.36369 -5.24907,-1.19816c-2.1019,-1.64854 -6.05839,-8.2427 -6.05839,-8.2427z"/>
   <path id="svg_9" d="m224.8804,49.18542a9.0805,9.0805 0 0 1 3.24282,-1.59039a9.73962,9.73962 0 0 1 3.68433,-0.30735a7.29658,7.29658 0 0 1 3.48751,1.38983a6.55005,6.55005 0 0 1 2.19785,2.90637a13.307,13.307 0 0 0 -2.77048,-2.00012a9.09807,9.09807 0 0 0 -3.0856,-0.93376a15.28709,15.28709 0 0 0 -3.31407,-0.0059c-1.12575,0.11773 -2.26455,0.30254 -3.44236,0.54132zm38.89612,16.86397c2.2101,0.86666 4.76754,0.76882 6.40421,-0.682a7.717,7.717 0 0 0 1.93252,-2.63934a18.69708,18.69708 0 0 0 1.15479,-3.22077a30.05934,30.05934 0 0 0 1.12291,-6.84741a25.43139,25.43139 0 0 0 -0.08746,-3.4887a17.10063,17.10063 0 0 0 -0.25319,-1.73706c-0.0515,-0.29035 -0.12489,-0.57309 -0.202,-0.858a2.20939,2.20939 0 0 0 -0.3453,-0.80365a4.14329,4.14329 0 0 1 0.912,1.55211a14.30935,14.30935 0 0 1 0.553,1.73082a18.86329,18.86329 0 0 1 0.495,3.60356a23.32382,23.32382 0 0 1 -0.87256,7.21733c-0.66077,2.27844 -1.6217,4.80037 -3.76419,6.34181a5.58512,5.58512 0 0 1 -3.62964,1.0316a6.759,6.759 0 0 1 -3.42009,-1.2003zm-15.99225,31.94697a12.03559,12.03559 0 0 1 2.22609,1.74931a17.66085,17.66085 0 0 1 1.859,2.1012a13.85634,13.85634 0 0 1 1.46867,2.424a4.7158,4.7158 0 0 1 0.54722,2.8272a11.30274,11.30274 0 0 0 -1.46754,-2.27748c-0.544,-0.71613 -1.1135,-1.41967 -1.64847,-2.15162c-0.544,-0.72674 -1.07323,-1.47083 -1.57972,-2.2401a19.169,19.169 0 0 1 -1.40525,-2.43251zm39.56643,-15.62643a42.38181,42.38181 0 0 1 2.38331,4.1927c0.36084,0.68941 0.71794,1.36987 1.11974,2.01827a9.01988,9.01988 0 0 0 1.44258,1.8669a3.80891,3.80891 0 0 1 -2.27283,-1.18871a7.83716,7.83716 0 0 1 -1.50508,-2.05741a10.58364,10.58364 0 0 1 -0.88946,-2.3376a8.0761,8.0761 0 0 1 -0.27826,-2.49415z"/>
   <path id="svg_10" d="m307.4667,78.90363s-15.89992,1.1616 -18.58555,7.50858l0.48325,0.91067l1.77495,-0.91067c8.53076,-4.2468 13.35371,1.39392 7.42491,2.38825c-5.93809,0.985 -41.29708,17.18233 -41.29708,17.18233c-15.33307,4.33971 -24.31923,27.6553 -24.31923,27.6553c2.47191,-1.05939 4.99028,-2.00727 7.49,-3.02015c2.56476,-0.82707 5.111,-1.7192 7.70369,-2.45331a108.32907,108.32907 0 0 1 15.88132,-3.22462a83.69627,83.69627 0 0 1 16.2159,-0.50179c1.34746,0.14866 2.69492,0.23232 4.04239,0.42749c1.32886,0.23232 2.67632,0.39028 3.99588,0.7062a35.13017,35.13017 0 0 1 7.70369,2.46261a43.05218,43.05218 0 0 0 -7.85241,-1.57048c-1.31956,-0.20442 -2.65772,-0.26947 -3.97727,-0.39028c-1.32886,-0.08366 -2.65772,-0.13012 -3.98658,-0.19517a111.21506,111.21506 0 0 0 -15.91853,0.90143l-3.95873,0.51109l-3.94012,0.697l-1.97007,0.32522l-1.95146,0.4275c-1.31026,0.28807 -2.61127,0.56684 -3.92153,0.83631c-2.602,0.60406 -5.18538,1.29171 -7.79665,1.91437c-2.58341,0.7062 -5.14817,1.48682 -7.7595,2.14663c-40.21909,6.59784 -79.46245,31.3259 -82.09232,30.66615c-2.63917,-0.65981 -4.95306,-21.42913 -4.95306,-26.77248c0,-5.3341 -0.985,-15.43534 -8.90249,-15.43534c-7.9081,0 -6.92307,6.92313 -6.92307,6.92313c14.84053,3.95873 -19.44977,6.93243 -29.67182,8.24268c-10.22205,1.31956 -4.61854,-2.62987 -4.61854,-2.62987s-2.96439,-3.16881 -6.1425,0.77132a9.96488,9.96488 0 0 0 -1.65414,9.10691c1.01293,3.38258 2.50905,8.51221 3.51269,12.536c1.65408,6.59785 7.58288,54.07459 9.56224,58.69313c1.97937,4.60924 42.85827,16.81065 129.90371,10.54727c7.05318,-1.10584 14.07851,-2.27668 21.10385,-3.44758c7.016,-1.1988 14.03212,-2.42546 20.99239,-3.84722c3.48479,-0.697 6.96958,-1.42182 10.41717,-2.24883q5.19936,-1.18488 10.315,-2.62988a105.91453,105.91453 0 0 0 10.07333,-3.38258a31.22747,31.22747 0 0 0 9.19987,-5.21323a19.43138,19.43138 0 0 1 -4.126,3.41973a42.42259,42.42259 0 0 1 -4.70215,2.62987a87.10937,87.10937 0 0 1 -10.01763,3.93083a187.23223,187.23223 0 0 1 -20.78793,5.31549q-10.524,2.09088 -21.1503,3.45689c-7.08115,0.93858 -14.19008,1.62623 -21.31762,2.01651c0,0 -3.16887,19.264 -4.82295,36.595l123.98415,0c-0.13011,-16.92211 -0.158,-39.34557 0.36243,-59.5109c0.985,-38.89953 0,-57.2063 0,-57.2063a29.19319,29.19319 0 0 1 -5.25974,-1.078c-1.71914,-0.49248 -3.40113,-1.07793 -5.08312,-1.682c-3.35473,-1.20805 -6.62575,-2.62051 -9.87822,-4.07024c-3.23392,-1.47751 -6.43058,-3.02015 -9.58085,-4.68353c-3.15026,-1.64484 -6.26332,-3.38259 -9.27422,-5.29689c3.35473,1.22665 6.635,2.59272 9.89682,3.99593c3.26178,1.38462 6.48634,2.85283 9.72957,4.29326l9.65514,4.42331c3.24317,1.43113 6.412,2.9737 9.79462,4.09815c0,0 16.31811,7.42491 17.80493,-11.37435c1.47757,-18.79011 -16.32741,-59.34379 -60.83051,-55.88685zm6.84883,61.05353a25.90779,25.90779 0 0 1 4.256,5.22253c0.58545,0.95713 1.0873,1.97007 1.61694,2.9737c0.45539,1.03149 0.82707,2.09088 1.25456,3.141a11.1208,11.1208 0 0 1 0.48318,1.61693l0.42749,1.63554a23.85491,23.85491 0 0 1 0.6319,3.30822l0.223,1.67269l0.11151,0.83631l0.0372,0.83638l0.11151,3.35467l0.02785,0.83638l-0.05575,0.83631l-0.12081,1.67275c-0.0743,1.11508 -0.14866,2.22092 -0.26947,3.32677c-0.37168,2.19313 -0.72481,4.38621 -1.19875,6.55145c-0.604,2.13732 -1.1895,4.26535 -1.85855,6.36552c0.26947,-2.20238 0.61329,-4.36761 0.95712,-6.53284c0.26023,-2.17448 0.40889,-4.35832 0.65981,-6.52349l0.0836,-3.26177l0.04651,-1.62624l0.02785,-0.80846l-0.05575,-0.80847l-0.16727,-3.24317l-0.03715,-0.80847l-0.12081,-0.79922l-0.2416,-1.59835a36.69874,36.69874 0 0 0 -3.81932,-12.23856a29.95892,29.95892 0 0 0 -3.66135,-5.3062a22.10682,22.10682 0 0 0 -4.87871,-4.31186a18.2641,18.2641 0 0 1 5.52926,3.67995zm23.427,-37.63573a6.56425,6.56425 0 0 1 -3.21526,3.15951a9.99113,9.99113 0 0 1 -2.18384,0.70626a20.72843,20.72843 0 0 1 -2.26744,0.19517c-0.75271,-0.03721 -1.51473,-0.03721 -2.25814,-0.13011l-2.21168,-0.36243c-0.73411,-0.14866 -1.44037,-0.36238 -2.16523,-0.54825l-2.09088,-0.56684a26.99564,26.99564 0 0 0 -4.15384,-0.74347a47.6546,47.6546 0 0 0 -8.54006,-0.02785a105.50263,105.50263 0 0 0 -17.01506,2.9551c-2.80644,0.70626 -5.61282,1.46827 -8.3914,2.29528c-2.79708,0.78992 -5.54776,1.7006 -8.317,2.62057a109.20169,109.20169 0 0 1 16.32735,-6.30977a84.61572,84.61572 0 0 1 17.24744,-3.41043a47.43255,47.43255 0 0 1 8.89314,0.13006a28.64807,28.64807 0 0 1 4.39552,0.92l4.13529,1.2731l2.07227,0.446c0.697,0.12081 1.39392,0.14866 2.09087,0.24162c0.697,0.04645 1.39392,-0.0093 2.08158,-0.02791a9.52028,9.52028 0 0 0 1.998,-0.49248a5.84231,5.84231 0 0 0 3.13166,-2.55552a7.36432,7.36432 0 0 0 0.81776,-1.95151a7.89527,7.89527 0 0 0 0.33453,-2.13733a8.12264,8.12264 0 0 1 -0.71554,4.32123l-0.00004,0z"/>
   <ellipse ry="2.33337" rx="2.33337" id="svg_12" cy="56.00497" cx="229.34219"/>
  </g>
 </g>
</svg>